Coordinates
version=1
nRows=15
nColumns=42
inDegrees=yes

Units are S.I. units (second, meters, Newtons, ...)
If the header above contains a line with 'inDegrees', this indicates whether rotational values are in degrees (yes) or radians (no).

endheader
time	pelvis_tilt	pelvis_list	pelvis_rotation	pelvis_tx	pelvis_ty	pelvis_tz	hip_flexion_r	hip_adduction_r	hip_rotation_r	knee_angle_r	knee_adduction_r	knee_angle_r_beta	ankle_angle_r	subtalar_angle_r	mtp_angle_r	hip_flexion_l	hip_adduction_l	hip_rotation_l	knee_angle_l	knee_adduction_l	knee_angle_l_beta	ankle_angle_l	subtalar_angle_l	mtp_angle_l	lumbar_extension	lumbar_bending	lumbar_rotation	arm_flex_r	arm_add_r	arm_rot_r	elbow_flex_r	pro_sup_r	wrist_flex_r	wrist_dev_r	arm_flex_l	arm_add_l	arm_rot_l	elbow_flex_l	pro_sup_l	wrist_flex_l	wrist_dev_l
      1.20000000	     15.74983629	      0.58876698	     -8.41426881	      0.35064279	      0.98226926	     -0.09648757	    -10.13502629	     -2.56630876	     -6.68885675	     64.17286992	     -7.58319095	      1.12002787	      4.37703916	     -2.75527681	     -7.57800869	     -3.46310359	      5.52117161	    -13.16123015	     19.63595215	     -1.76999314	      0.34271202	      8.43876530	     10.50432513	     -7.57800869	    -36.91392226	     -2.46346993	      5.95343952	      2.74672145	    -19.61297789	     -2.95315408	     68.16869007	     90.00000001	      0.00000000	      0.00000000	     -2.50254068	    -16.23463120	     -1.60862493	     52.34246003	     90.00000001	      0.00000000	      0.00000000
      1.21000000	     15.72910322	      0.52779433	     -8.14408119	      0.36375420	      0.98454046	     -0.09676271	     -8.44299553	     -2.42427741	     -7.16055495	     64.22600893	     -7.78344321	      1.12095532	      5.63396412	     -2.62516903	     -7.57673904	     -4.90996936	      5.60442668	    -12.75692041	     18.37552593	     -1.61593990	      0.32071343	      8.57572563	     10.94696754	     -7.57673904	    -36.90441933	     -2.14895916	      5.69116527	      2.45728014	    -19.68398191	     -3.18871247	     68.24902504	     90.00000001	      0.00000000	      0.00000000	     -2.03813898	    -16.42436539	     -1.75320809	     53.15704344	     90.00000001	      0.00000000	      0.00000000
      1.22000000	     15.66707966	      0.44591134	     -7.80232116	      0.37680705	      0.98648312	     -0.09716443	     -6.75931738	     -2.27595388	     -7.55915014	     63.93017952	     -7.77617379	      1.11579212	      6.67020483	     -2.42140254	     -7.57555588	     -6.25615440	      5.64802798	    -12.57490558	     17.21039209	     -1.55555380	      0.30037801	      8.66028021	     11.36270616	     -7.57555588	    -36.84730880	     -1.76598853	      5.38932209	      2.18034930	    -19.78102743	     -3.43168197	     68.29702900	     90.00000001	      0.00000000	      0.00000000	     -1.58361849	    -16.61323203	     -1.86416036	     53.95104335	     90.00000001	      0.00000000	      0.00000000
      1.23000000	     16.01244977	      0.51664950	     -7.42524390	      0.39018211	      0.98877206	     -0.09759874	     -5.67106104	     -2.36030201	     -8.35898893	     63.04726177	     -8.07723178	      1.10038230	      8.00497751	     -1.06594981	     -7.57108725	     -8.27376771	      5.92668849	    -11.99845159	     15.52292481	     -1.39395284	      0.27092615	      8.42697771	     11.96650258	     -7.57108725	    -37.17583066	     -1.57086927	      4.97934850	      1.88473922	    -19.84077767	     -3.74873537	     68.44283608	     90.00000001	      0.00000000	      0.00000000	     -1.12353768	    -16.90854843	     -1.90923350	     54.94181164	     90.00000001	      0.00000000	      0.00000000
      1.24000000	     15.68880871	      0.41826289	     -7.05730395	      0.40290977	      0.98970839	     -0.09787324	     -3.76413724	     -2.11081248	     -8.40855298	     62.21899136	     -7.76040911	      1.08592626	      8.65511495	     -1.21424497	     -7.57011269	     -9.17393302	      5.88225749	    -12.13003612	     14.64608504	     -1.48066937	      0.25562241	      8.64293581	     12.33237797	     -7.57011269	    -36.85837924	     -1.16146511	      4.72172961	      1.62773527	    -19.93005165	     -3.96146252	     68.44906888	     90.00000001	      0.00000000	      0.00000000	     -0.61459978	    -17.10354194	     -1.99502058	     55.71802867	     90.00000001	      0.00000000	      0.00000000
      1.25000000	     15.78722944	      0.38230225	     -6.76321897	      0.41590943	      0.99097888	     -0.09791680	     -2.47671367	     -1.99159184	     -8.06933889	     60.99786511	     -7.11818740	      1.06461358	      9.34449749	     -1.61698554	     -7.56817627	    -10.81380975	      5.93982298	    -11.94955264	     13.17398911	     -1.37045151	      0.22992949	      8.85110608	     13.68780083	     -7.56817627	    -36.96870550	     -0.92309528	      4.49839142	      1.35883006	    -19.93493364	     -4.42055300	     68.54068152	     90.00000001	      0.00000000	      0.00000000	     -0.12180437	    -17.40028644	     -2.02290437	     56.75341429	     90.00000001	      0.00000000	      0.00000000
      1.26000000	     15.50665175	      0.30059107	     -6.46083902	      0.42864035	      0.99127790	     -0.09799446	     -0.74394536	     -1.75108034	     -7.82569938	     59.66060898	     -6.61872928	      1.04127406	      9.77170603	     -1.90127856	     -7.56709252	    -11.77947413	      5.92737375	    -12.04213820	     12.24453802	     -1.46178669	      0.21370750	      9.14275715	     14.23817878	     -7.56709252	    -36.68218722	     -0.59491045	      4.31011039	      1.11895358	    -20.00229967	     -4.68411329	     68.55568486	     90.00000001	      0.00000000	      0.00000000	      0.41107271	    -17.63351992	     -2.03205870	     57.63848891	     90.00000001	      0.00000000	      0.00000000
      1.27000000	     15.52221406	      0.24031243	     -6.18629232	      0.44155852	      0.99174998	     -0.09780873	      0.50742641	     -1.58674616	     -7.16183573	     57.99993069	     -5.73959061	      1.01228976	     10.06793229	     -2.56604743	     -7.56572154	    -13.24612806	      5.89033427	    -11.85781877	     10.98461916	     -1.31124915	      0.19171777	      9.52306725	     15.27345165	     -7.56572154	    -36.71133173	     -0.38128567	      4.15808994	      0.85926510	    -19.99989547	     -5.14851792	     68.58774544	     90.00000001	      0.00000000	      0.00000000	      0.94385814	    -17.95226259	     -1.95074712	     58.66305485	     90.00000001	      0.00000000	      0.00000000
      1.28000000	     15.77343513	      0.03958096	     -5.97261234	      0.45457939	      0.99235122	     -0.09732949	      1.32300223	     -1.24417038	     -6.12528051	     55.93286040	     -4.59717654	      0.97621257	      9.58918400	     -4.34240103	     -7.56259868	    -14.93460639	      5.68774316	    -11.97993466	      9.86133851	     -1.10407123	      0.17211283	      9.62636436	     16.09880802	     -7.56259868	    -36.99555615	     -0.09657471	      4.14584285	      0.55489405	    -20.04776776	     -5.51813676	     68.77187014	     90.00000001	      0.00000000	      0.00000000	      1.61132596	    -18.26831092	     -1.73197740	     59.50791765	     90.00000001	      0.00000000	      0.00000000
      1.29000000	     15.57204003	      0.07222097	     -5.69859607	      0.46733101	      0.99171998	     -0.09712044	      2.74991485	     -1.18543423	     -5.48227420	     53.99780715	     -3.77504919	      0.94243952	      9.78515724	     -4.77835514	     -7.56133232	    -15.97574065	      5.72813463	    -11.73575531	      8.97287087	     -1.03675112	      0.15660614	     10.24376235	     16.59513454	     -7.56133232	    -36.78688409	      0.03267684	      3.95238266	      0.35702060	    -19.98502919	     -5.94880861	     68.68566147	     90.00000001	      0.00000000	      0.00000000	      2.20488331	    -18.58648999	     -1.60600844	     60.46879128	     90.00000001	      0.00000000	      0.00000000
      1.30000000	     15.79048873	     -0.11330959	     -5.48497705	      0.48028976	      0.99160292	     -0.09641924	      3.45313062	     -0.85128042	     -4.39299000	     51.54083254	     -2.68236278	      0.89955723	      9.08165318	     -6.69268845	     -7.55775296	    -17.61670659	      5.48528624	    -11.47955250	      7.91499077	     -0.72327846	      0.13814265	     10.37670611	     16.77338158	     -7.55775296	    -37.04523093	      0.26075268	      3.95661465	      0.06709939	    -19.96772561	     -6.38764046	     68.83583443	     90.00000001	      0.00000000	      0.00000000	      2.95481584	    -18.94053793	     -1.28174090	     61.27506885	     90.00000001	      0.00000000	      0.00000000
      1.31000000	     15.83367512	     -0.12652020	     -5.22218669	      0.49319216	      0.99077702	     -0.09587070	      4.36559499	     -0.75888664	     -3.75675191	     49.05592794	     -1.92747489	      0.85618746	      8.92441385	     -7.35872266	     -7.55521178	    -18.93700712	      5.42163216	    -11.19584155	      7.07562774	     -0.54257778	      0.12349300	     10.77328539	     17.01911151	     -7.55521178	    -37.09747508	      0.35753827	      3.83135294	     -0.18961100	    -19.86718170	     -6.84583499	     68.87102598	     90.00000001	      0.00000000	      0.00000000	      3.70251695	    -19.30802664	     -0.95148403	     62.10474203	     90.00000001	      0.00000000	      0.00000000
      1.32000000	     15.87320178	     -0.15803298	     -4.97369267	      0.50604073	      0.98965798	     -0.09523372	      5.19265352	     -0.63606264	     -3.34179997	     46.34387278	     -1.40982200	      0.80885317	      8.66516989	     -7.81152041	     -7.55280054	    -20.19083396	      5.33022463	    -10.91105638	      6.36672695	     -0.39549813	      0.11112035	     11.20531662	     17.17231676	     -7.55280054	    -37.16099599	      0.45809309	      3.73243169	     -0.42175442	    -19.76931201	     -7.31471590	     68.90561442	     90.00000001	      0.00000000	      0.00000000	      4.48523181	    -19.68400485	     -0.55464540	     62.87738977	     90.00000001	      0.00000000	      0.00000000
      1.33000000	     15.84802696	     -0.09991248	     -4.72606559	      0.51882113	      0.98812924	     -0.09453223	      6.05700296	     -0.63033459	     -3.19284629	     43.53429108	     -1.09358124	      0.75981672	      8.51726183	     -7.70005709	     -7.55116826	    -21.28511353	      5.29587850	    -10.63511049	      5.84005603	     -0.24153723	      0.10192821	     11.80576466	     17.40102577	     -7.55116826	    -37.15619601	      0.45989620	      3.57623501	     -0.61200330	    -19.60268857	     -7.79767906	     68.86937903	     90.00000001	      0.00000000	      0.00000000	      5.30138697	    -20.08685836	     -0.10209854	     63.60862324	     90.00000001	      0.00000000	      0.00000000
      1.34000000	     15.86103559	     -0.08211957	     -4.46820791	      0.53166273	      0.98643721	     -0.09375839	      6.77113810	     -0.54228328	     -3.45197086	     40.49810838	     -1.14684830	      0.70682533	      8.18562621	     -7.22028207	     -7.54927888	    -22.37580275	      5.20735911	    -10.42289216	      5.42316963	     -0.11416477	      0.09465217	     12.29253998	     17.52462226	     -7.54927888	    -37.19828253	      0.49611329	      3.47757508	     -0.86775675	    -19.46429409	     -8.26309465	     68.91110431	     90.00000001	      0.00000000	      0.00000000	      6.19274393	    -20.46171120	      0.43882023	     64.25608283	     90.00000001	      0.00000000	      0.00000000
